<?xml version="1.0" encoding="UTF-8"?>
<svg id="Camada_2" data-name="Camada 2" xmlns="http://www.w3.org/2000/svg" viewBox="0 0 948.13 180">
  <defs>
    <style>
      .cls-1 {
        fill: #25d366;
      }

      .cls-1, .cls-2, .cls-3 {
        stroke-width: 0px;
      }

      .cls-2 {
        fill: #555;
      }

      .cls-3 {
        fill: #5ffc7b;
      }
    </style>
  </defs>
  <g id="Camada_1-2" data-name="Camada 1">
    <g>
      <g>
        <path class="cls-2" d="m287.73,70.45c-.28-1.1-.69-3.44-2.06-6.06-2.06-4.27-7.43-10.88-19.14-10.88-25.06,0-25.47,29.19-25.47,32.9,0,2.75-.14,20.51,11.56,28.91,2.06,1.51,6.75,4.27,13.63,4.27,6.19,0,10.46-2.2,12.39-3.58,8.12-5.37,9.22-16.11,9.5-18.45l21.2.14c-.27,4.82-1.24,14.18-8.67,24.09-8.54,11.43-20.65,15.83-34.69,15.83-4.96,0-17.9-.41-29.05-9.77-16.66-13.77-17.35-35.65-17.35-41.71,0-5.23.55-17.9,8.67-30.42,12.39-19,30.56-20.24,38.68-20.24,4.96,0,17.21.41,27.95,9.36,3.03,2.48,6.06,5.78,8.12,8.95,2.89,4.54,4.27,8.95,4.82,10.88.28,1.24.55,3.03.83,5.78h-20.93Z"/>
        <path class="cls-2" d="m365.65,135.16c-1.1-3.58-1.24-4.82-1.24-6.75-3.85,3.72-10.74,8.81-23.27,8.81-20.1,0-24.5-12.94-24.5-21.48,0-3.85.96-13.08,11.01-17.9,6.47-3.03,15.28-3.72,22.16-4.68,2.89-.41,10.74-1.38,13.08-3.58,1.38-1.24,1.51-4.27,1.51-4.41-.14-7.85-6.06-9.64-12.67-9.64-3.58,0-5.64.55-7.16,1.1-5.92,2.2-6.33,7.85-6.61,9.77l-18.31-.14c.41-5.23,1.79-9.64,5.23-13.77,4.68-5.64,12.25-9.91,27.53-9.91,1.79,0,10.32.14,16.93,2.48,2.75.96,5.51,2.48,7.71,4.41,2.62,2.2,3.99,4.54,4.54,5.64,1.1,2.62,1.65,5.64,1.65,11.43,0,4.82-.28,9.77-.28,14.59-.14,5.09-.28,10.05-.28,15.14,0,10.05.55,14.32,2.62,18.86h-19.69Zm-1.51-34.28c-.69.41-1.38.83-2.06,1.1-3.03,1.38-6.33,1.65-12.94,2.75-.14,0-4.82.83-7.16,1.79-3.58,1.65-5.51,4.68-5.51,8.54s1.93,9.5,10.74,9.5c7.02,0,11.01-3.03,12.94-4.96,1.1-1.1,2.34-2.75,3.03-3.99.96-2.34.96-6.75.96-6.88v-7.85Z"/>
        <path class="cls-2" d="m462.84,135.16h-18.45v-9.91c-1.93,2.62-2.89,3.85-4.13,4.96-2.89,2.75-8.67,7.02-18.45,7.02-3.85,0-17.76-.96-22.58-14.32-1.51-4.41-1.65-8.95-1.65-13.63v-44.6h19.14v38.96c.14,5.37-.14,7.3.69,10.05.96,2.89,3.72,7.3,11.29,7.3,1.51,0,5.64-.14,9.22-3.03,5.92-4.68,5.78-11.56,5.92-18.31v-34.97h19v70.48Z"/>
        <path class="cls-2" d="m518.6,85.18c-.28-1.93-.55-3.44-1.65-5.23-1.79-2.62-5.09-4.41-11.43-4.41,0,0-11.15-.55-11.15,7.02,0,1.38.55,3.99,3.58,5.37,1.65.83,5.23,1.79,9.5,2.75,13.77,2.75,20.79,4.41,26.02,9.36,3.99,3.58,5.64,7.98,5.64,13.22,0,4.82-1.38,9.36-4.27,13.08-4.41,5.92-12.53,10.88-28.08,10.88-2.89,0-20.92.41-29.19-11.98-3.44-5.23-3.72-10.88-3.85-12.94h18.45c.55,3.58,1.24,5.23,2.2,6.75,1.79,2.48,5.92,4.96,12.8,4.96,1.1,0,5.23,0,8.54-1.93,3.58-1.93,4.41-5.09,4.41-6.88,0-.55-.14-1.51-.69-2.75-1.1-2.34-3.3-3.44-5.64-4.13-8.12-2.62-16.11-3.44-24.09-6.06-3.72-1.24-14.46-5.09-14.46-17.9.14-8.67,4.54-13.22,7.02-15.14,8.67-6.88,20.65-6.61,23.27-6.61,1.65,0,18.45-.41,26.43,9.09,2.07,2.62,4.27,6.33,4.82,13.49h-18.17Z"/>
        <path class="cls-2" d="m595.01,135.16c-1.1-3.58-1.24-4.82-1.24-6.75-3.85,3.72-10.74,8.81-23.26,8.81-20.1,0-24.5-12.94-24.5-21.48,0-3.85.96-13.08,11.01-17.9,6.47-3.03,15.28-3.72,22.16-4.68,2.89-.41,10.74-1.38,13.08-3.58,1.38-1.24,1.51-4.27,1.51-4.41-.14-7.85-6.06-9.64-12.67-9.64-3.58,0-5.64.55-7.16,1.1-5.92,2.2-6.33,7.85-6.61,9.77l-18.31-.14c.41-5.23,1.79-9.64,5.23-13.77,4.68-5.64,12.25-9.91,27.53-9.91,1.79,0,10.33.14,16.93,2.48,2.75.96,5.51,2.48,7.71,4.41,2.62,2.2,3.99,4.54,4.54,5.64,1.1,2.62,1.65,5.64,1.65,11.43,0,4.82-.28,9.77-.28,14.59-.14,5.09-.28,10.05-.28,15.14,0,10.05.55,14.32,2.62,18.86h-19.69Zm-1.51-34.28c-.69.41-1.38.83-2.06,1.1-3.03,1.38-6.33,1.65-12.94,2.75-.14,0-4.82.83-7.16,1.79-3.58,1.65-5.51,4.68-5.51,8.54s1.93,9.5,10.74,9.5c7.02,0,11.01-3.03,12.94-4.96,1.1-1.1,2.34-2.75,3.03-3.99.96-2.34.96-6.75.96-6.88v-7.85Z"/>
        <path class="cls-2" d="m667.7,85.18c-.28-1.93-.55-3.44-1.65-5.23-1.79-2.62-5.09-4.41-11.43-4.41,0,0-11.15-.55-11.15,7.02,0,1.38.55,3.99,3.58,5.37,1.65.83,5.23,1.79,9.5,2.75,13.77,2.75,20.79,4.41,26.02,9.36,3.99,3.58,5.64,7.98,5.64,13.22,0,4.82-1.38,9.36-4.27,13.08-4.41,5.92-12.53,10.88-28.08,10.88-2.89,0-20.92.41-29.19-11.98-3.44-5.23-3.72-10.88-3.85-12.94h18.45c.55,3.58,1.24,5.23,2.2,6.75,1.79,2.48,5.92,4.96,12.8,4.96,1.1,0,5.23,0,8.54-1.93,3.58-1.93,4.41-5.09,4.41-6.88,0-.55-.14-1.51-.69-2.75-1.1-2.34-3.3-3.44-5.64-4.13-8.12-2.62-16.11-3.44-24.09-6.06-3.72-1.24-14.46-5.09-14.46-17.9.14-8.67,4.54-13.22,7.02-15.14,8.67-6.88,20.65-6.61,23.27-6.61,1.65,0,18.45-.41,26.43,9.09,2.07,2.62,4.27,6.33,4.82,13.49h-18.17Z"/>
        <path class="cls-2" d="m786.64,135.16h-22.3l-7.71-21.75h-36.07l-7.98,21.75h-21.89l37.03-97.19h22.03l36.89,97.19Zm-47.91-75.44l-13.08,38.27h25.74l-12.67-38.27Z"/>
        <path class="cls-2" d="m811.98,73.48c1.93-2.48,2.62-3.17,3.85-4.27,2.75-2.62,8.26-6.61,17.9-6.61,2.07,0,7.02.14,12.39,2.62,8.4,3.72,18.86,13.9,18.86,35.1,0,4.13,0,18.17-9.77,28.36-3.17,3.17-9.5,8.54-20.79,8.54-10.19,0-16.24-4.54-19-7.43-1.38-1.38-2.06-2.62-2.48-3.3v33.59h-19.27v-95.4h18.31v8.81Zm.28,26.71c0,1.79-.28,12.94,7.16,18.58,3.86,2.75,7.99,3.03,9.64,3.03,7.16,0,10.88-3.99,12.39-6.19,3.03-4.13,3.99-10.32,3.99-15.42,0-1.65,0-9.77-3.86-15.42-1.65-2.34-5.51-6.61-12.8-6.47-8.12,0-16.52,5.37-16.52,21.89Z"/>
        <path class="cls-2" d="m895.13,73.48c1.93-2.48,2.62-3.17,3.85-4.27,2.75-2.62,8.26-6.61,17.9-6.61,2.07,0,7.02.14,12.39,2.62,8.4,3.72,18.86,13.9,18.86,35.1,0,4.13,0,18.17-9.77,28.36-3.17,3.17-9.5,8.54-20.79,8.54-10.19,0-16.24-4.54-19-7.43-1.38-1.38-2.06-2.62-2.48-3.3v33.59h-19.27v-95.4h18.31v8.81Zm.28,26.71c0,1.79-.28,12.94,7.16,18.58,3.86,2.75,7.99,3.03,9.64,3.03,7.16,0,10.88-3.99,12.39-6.19,3.03-4.13,3.99-10.32,3.99-15.42,0-1.65,0-9.77-3.86-15.42-1.65-2.34-5.51-6.61-12.8-6.47-8.12,0-16.52,5.37-16.52,21.89Z"/>
      </g>
      <g>
        <path class="cls-1" d="m88.08,148.28c-6.34-4.3-12.82-8.41-18.97-12.97-9.72-7.21-18.64-15.34-26.07-24.98-4.24-5.51-7.79-11.41-9.74-18.14-.65-2.24-.99-4.58-1.47-6.87v-5.47c.07-.33.17-.66.2-.99.8-7.7,3.61-14.56,8.81-20.32,6.81-7.54,15.32-11.25,25.49-10.27,9.92.96,17.44,6.12,22.97,14.3.25.37.49.73.69,1.02V0C40.29,0,0,40.29,0,90s40.29,90,90,90v-31.05c-.65-.03-1.29-.25-1.92-.68Z"/>
        <path class="cls-3" d="m91.93,148.28c6.34-4.3,12.82-8.41,18.97-12.97,9.72-7.21,18.64-15.34,26.07-24.98,4.24-5.51,7.79-11.41,9.74-18.14.65-2.24.99-4.58,1.47-6.87v-5.47c-.07-.33-.17-.66-.2-.99-.8-7.7-3.61-14.56-8.81-20.32-6.81-7.54-15.32-11.25-25.49-10.27-9.92.96-17.44,6.12-22.97,14.3-.25.37-.49.73-.69,1.02V0c49.71,0,90,40.29,90,90,0,49.71-40.29,90-90,90v-31.05c.65-.03,1.29-.25,1.92-.68Z"/>
      </g>
    </g>
  </g>
</svg>