<?xml version="1.0" encoding="UTF-8"?>
<svg id="Camada_2" data-name="Camada 2" xmlns="http://www.w3.org/2000/svg" viewBox="0 0 577.54 180.81">
  <defs>
    <style>
      .cls-1 {
        font-family: RedHatDisplayRoman-Black, 'Red Hat Display';
        font-size: 37.75px;
        font-variation-settings: 'wght' 900;
        font-weight: 800;
      }

      .cls-1, .cls-2 {
        fill: #690202;
      }

      .cls-3 {
        fill: #4180ab;
      }

      .cls-3, .cls-2 {
        stroke-width: 0px;
      }
    </style>
  </defs>
  <g id="Camada_1-2" data-name="Camada 1">
    <g>
      <path class="cls-2" d="m84.89,167c-12.03,0-23.17-2.12-33.42-6.36-10.26-4.24-19.28-10.18-27.06-17.81-7.79-7.63-13.8-16.5-18.04-26.6C2.12,106.13,0,95.22,0,83.5s2.12-22.86,6.36-32.96c4.24-10.1,10.25-18.93,18.04-26.48,7.79-7.55,16.85-13.45,27.18-17.69C61.91,2.12,73.01,0,84.89,0c8.48,0,16.77,1.12,24.86,3.35,8.1,2.24,15.57,5.44,22.44,9.6,6.86,4.16,12.91,9.25,18.16,15.27l-16.42,16.42c-6.01-7.25-13.34-12.76-21.97-16.54-8.64-3.78-17.66-5.67-27.06-5.67-8.64,0-16.58,1.54-23.82,4.63-7.25,3.09-13.61,7.4-19.08,12.95-5.48,5.55-9.71,12.03-12.72,19.43-3.01,7.4-4.51,15.42-4.51,24.06s1.5,16.65,4.51,24.06c3.01,7.4,7.25,13.88,12.72,19.43,5.47,5.55,11.95,9.87,19.43,12.95,7.48,3.09,15.46,4.63,23.94,4.63,9.4,0,18.35-1.93,26.83-5.78,8.48-3.85,15.65-9.17,21.51-15.96l15.96,16.19c-5.24,5.71-11.3,10.68-18.16,14.92-6.86,4.24-14.27,7.48-22.21,9.72-7.94,2.23-16.08,3.35-24.4,3.35Z"/>
      <path class="cls-3" d="m185.07,130.07c-6.31,0-11.83-1.1-16.56-3.29-4.73-2.2-8.45-5.26-11.15-9.21-2.7-3.94-4.06-8.5-4.06-13.69,0-8.11,3.13-14.47,9.38-19.09,6.25-4.62,14.73-6.93,25.43-6.93,8.45,0,16.22,1.52,23.32,4.56v-8.95c0-6.19-1.75-10.81-5.24-13.85-3.49-3.04-8.67-4.56-15.54-4.56-3.94,0-8.03.59-12.25,1.77-4.22,1.18-8.98,3.01-14.28,5.49l-6.42-12.67c6.42-3.04,12.47-5.26,18.16-6.67,5.69-1.41,11.4-2.11,17.15-2.11,11.15,0,19.79,2.65,25.93,7.94,6.14,5.3,9.21,12.84,9.21,22.64v57.11h-16.73v-7.43c-3.72,3.04-7.77,5.3-12.16,6.76-4.39,1.46-9.12,2.2-14.19,2.2Zm-15.71-26.69c0,4.28,1.8,7.72,5.41,10.31,3.6,2.59,8.28,3.89,14.02,3.89,4.5,0,8.67-.68,12.5-2.03,3.83-1.35,7.21-3.44,10.14-6.25v-14.53c-3.15-1.8-6.53-3.15-10.14-4.05-3.61-.9-7.49-1.35-11.66-1.35-6.31,0-11.26,1.3-14.87,3.89-3.61,2.59-5.41,5.97-5.41,10.14Z"/>
      <path class="cls-3" d="m280.19,130.24c-6.65,0-12.5-1.41-17.57-4.22s-9.04-6.79-11.91-11.91c-2.87-5.12-4.31-10.95-4.31-17.49v-54.06h16.9v51.19c0,6.65,1.94,11.94,5.83,15.88,3.89,3.94,9.09,5.91,15.63,5.91,4.5,0,8.59-.99,12.25-2.96,3.66-1.97,6.62-4.76,8.87-8.36v-61.67h16.9v86h-16.9v-8.79c-6.65,6.99-15.21,10.48-25.68,10.48Z"/>
      <path class="cls-3" d="m372.27,130.24c-7.43,0-14.39-1.1-20.87-3.29-6.48-2.2-12.08-5.38-16.81-9.55l9.12-11.15c4.5,3.61,9.12,6.31,13.85,8.11,4.73,1.8,9.46,2.7,14.19,2.7,6.08,0,11.04-1.15,14.87-3.46,3.83-2.31,5.75-5.38,5.75-9.21,0-3.15-1.13-5.63-3.38-7.43-2.25-1.8-5.74-3.04-10.47-3.72l-15.54-2.2c-8.67-1.24-15.12-3.89-19.34-7.94s-6.34-9.46-6.34-16.22c0-5.07,1.41-9.57,4.22-13.52,2.81-3.94,6.76-6.98,11.83-9.12,5.07-2.14,10.92-3.21,17.57-3.21s12.47.87,18.16,2.62c5.69,1.75,11.18,4.54,16.47,8.36l-8.45,11.15c-4.84-3.15-9.46-5.46-13.85-6.93-4.39-1.46-8.9-2.2-13.52-2.2-5.18,0-9.35,1.1-12.5,3.29-3.15,2.2-4.73,5.04-4.73,8.53,0,3.27,1.12,5.72,3.38,7.35,2.25,1.63,5.8,2.85,10.64,3.63l15.71,2.2c8.56,1.24,15.04,3.89,19.43,7.94,4.39,4.06,6.59,9.46,6.59,16.22,0,5.07-1.6,9.66-4.81,13.77-3.21,4.11-7.49,7.35-12.84,9.71-5.35,2.37-11.46,3.55-18.33,3.55Z"/>
      <path class="cls-3" d="m449.3,130.07c-6.31,0-11.83-1.1-16.56-3.29-4.73-2.2-8.45-5.26-11.15-9.21-2.7-3.94-4.05-8.5-4.05-13.69,0-8.11,3.13-14.47,9.38-19.09,6.25-4.62,14.73-6.93,25.43-6.93,8.45,0,16.22,1.52,23.32,4.56v-8.95c0-6.19-1.75-10.81-5.24-13.85-3.49-3.04-8.67-4.56-15.54-4.56-3.94,0-8.03.59-12.25,1.77-4.22,1.18-8.98,3.01-14.28,5.49l-6.42-12.67c6.42-3.04,12.47-5.26,18.16-6.67,5.69-1.41,11.4-2.11,17.15-2.11,11.15,0,19.79,2.65,25.93,7.94,6.14,5.3,9.21,12.84,9.21,22.64v57.11h-16.73v-7.43c-3.72,3.04-7.77,5.3-12.17,6.76s-9.12,2.2-14.19,2.2Zm-15.71-26.69c0,4.28,1.8,7.72,5.41,10.31,3.6,2.59,8.28,3.89,14.02,3.89,4.5,0,8.67-.68,12.5-2.03,3.83-1.35,7.21-3.44,10.14-6.25v-14.53c-3.16-1.8-6.53-3.15-10.14-4.05-3.61-.9-7.49-1.35-11.66-1.35-6.31,0-11.26,1.3-14.87,3.89-3.61,2.59-5.41,5.97-5.41,10.14Z"/>
      <path class="cls-3" d="m541.55,130.24c-7.43,0-14.39-1.1-20.87-3.29-6.48-2.2-12.08-5.38-16.81-9.55l9.12-11.15c4.5,3.61,9.12,6.31,13.85,8.11,4.73,1.8,9.46,2.7,14.19,2.7,6.08,0,11.04-1.15,14.87-3.46,3.83-2.31,5.75-5.38,5.75-9.21,0-3.15-1.13-5.63-3.38-7.43-2.25-1.8-5.74-3.04-10.47-3.72l-15.54-2.2c-8.67-1.24-15.12-3.89-19.34-7.94s-6.34-9.46-6.34-16.22c0-5.07,1.41-9.57,4.22-13.52,2.81-3.94,6.76-6.98,11.83-9.12,5.07-2.14,10.92-3.21,17.57-3.21s12.47.87,18.16,2.62c5.69,1.75,11.18,4.54,16.47,8.36l-8.45,11.15c-4.84-3.15-9.46-5.46-13.85-6.93-4.39-1.46-8.9-2.2-13.52-2.2-5.18,0-9.35,1.1-12.5,3.29-3.15,2.2-4.73,5.04-4.73,8.53,0,3.27,1.12,5.72,3.38,7.35,2.25,1.63,5.8,2.85,10.64,3.63l15.71,2.2c8.56,1.24,15.04,3.89,19.43,7.94,4.39,4.06,6.59,9.46,6.59,16.22,0,5.07-1.6,9.66-4.81,13.77-3.21,4.11-7.49,7.35-12.84,9.71-5.35,2.37-11.46,3.55-18.33,3.55Z"/>
      <text class="cls-1" transform="translate(479.52 171.22)"><tspan x="0" y="0">. APP</tspan></text>
    </g>
  </g>
</svg>