<?xml version="1.0" encoding="UTF-8"?>
<svg id="Camada_2" data-name="Camada 2" xmlns="http://www.w3.org/2000/svg" xmlns:xlink="http://www.w3.org/1999/xlink" viewBox="0 0 253.87 47.43">
  <defs>
    <style>
      .cls-1 {
        fill: url(#Gradiente_sem_nome_2);
      }

      .cls-1, .cls-2, .cls-3 {
        stroke-width: 0px;
      }

      .cls-4 {
        font-size: 16px;
      }

      .cls-5 {
        clip-path: url(#clippath-2);
      }

      .cls-6, .cls-7 {
        font-size: 37px;
      }

      .cls-7 {
        letter-spacing: -.04em;
      }

      .cls-2 {
        fill: none;
      }

      .cls-8 {
        clip-path: url(#clippath-1);
      }

      .cls-9 {
        clip-path: url(#clippath);
      }

      .cls-3 {
        fill: url(#Gradiente_sem_nome);
      }

      .cls-10 {
        clip-path: url(#clippath-3);
      }

      .cls-11 {
        font-family: ArialRoundedMTBold, 'Arial Rounded MT Bold';
      }
    </style>
    <clipPath id="clippath">
      <rect class="cls-2" y="3.65" width="45.39" height="43.78"/>
    </clipPath>
    <clipPath id="clippath-1">
      <path class="cls-2" d="m44.9,24.63c.41-10.75-6.23-19.16-8-18.19-.29.16-.46.58.37,1.68.87,1.16,1.95,2.59,2.94,4.56l.04.11c.33.86.39,1.02.26,1.37-.57-.13-.74-.17-1.87-1.44-2.32-2.63-5.12-4.84-8.29-6.38-2.23-1.08-4.51-1.64-6.9-2.22-.76-.18-4.05.11-3.03,1.51.17.23.57.54,1.5.7,2.31.4,7.11,1.24,12.18,5.57.36.45.22.78-.11.82q-.25.04-1.77-1.19c-.42-.34-.86-.67-1.3-.97-1.07-.74-2.22-1.37-3.42-1.88-1.6-.68-3.29-1.15-5.01-1.42-.97-.15-1.99-.31-2.97-.29-.79.02-1.72.22-2.22.89-.36.48-.38,1.16.1,1.57.43.36.97.39,1.23.4,2.35.1,6.79.3,12.32,4.67l.35.29c.54.75-.19.81-.19.81-.54,0-1.06-.68-1.48-1.02-.13-.1-.27-.2-.41-.3-1.38-.98-2.92-1.77-4.51-2.37-1.43-.54-5.51-2.21-6.38-.07-.23.57-.1,1.27.37,1.68.1.09.37.29.81.36,2.05.34,5.47.91,9.55,4.47l.35.33c.4.77-.45.83-.54.79-1.77-.79-3.01-2.37-4.74-3.22-1.51-.48-2.21,1.28-1.79,2.23q.15.34,1.35.92c4.9,2.37,8.92,8.97,7.11,15.03-2.14,7.16-9.5,9.26-15.37,7.16-8.06-2.88-11.22-11.52-8.3-17.62-.07-.13-.14-.25-.2-.38-.7-1.46-1.23-3-1.6-4.58-.36-1.53-.57-3.1-.61-4.68-.02-.73,0-1.46.07-2.19.05-.5.13-1,.22-1.5.06-.3.11-.6.15-.91-.24.27-.49.53-.72.81-1.24,1.52-2.24,3.22-2.97,5.05-.73,1.84-1.19,3.81-1.35,5.86l-.03.49c-.04.86-.06,1.23-.03,1.95,0,.72.04,1.09.12,1.95.09.85.13,1.18.29,1.92.12.72.21,1.07.43,1.89.22.8.31,1.12.57,1.8.24.71.36.99.69,1.73.32.71.45.98.8,1.61.33.64.48.88.9,1.53.4.62.56.86.99,1.41.41.58.59.78,1.07,1.34.48.55.65.75,1.16,1.23.48.5.68.67,1.23,1.15.55.48.74.65,1.31,1.05.55.43.76.57,1.37.97.61.4.83.54,1.44.87.6.35.84.47,1.5.78.68.32.92.43,1.58.67.64.26.92.35,1.63.57.74.23,1.01.31,1.71.45.69.17.99.22,1.76.34.8.12,1.12.16,1.84.2.71.07,1.05.07,1.87.07.87,0,1.22-.01,1.97-.09.72-.05,1.11-.1,1.97-.24.21-.04.44-.08.68-.13-.06.01-.12.02-.18.03.23-.05.47-.1.72-.15-.18.04-.36.08-.54.12.06,0,.11-.02.17-.03.18-.03.36-.07.54-.11.17-.04.35-.08.53-.12.18-.04.35-.09.52-.13,2.44-.67,4.63-1.74,6.53-3.13,1.9-1.39,3.5-3.1,4.76-5.04,1.25-1.94,2.16-4.12,2.66-6.44.5-2.33.6-4.8.25-7.33ZM.07,22.1c0,.55-.02.97-.02,1.32,0-.05,0-.09,0-.14,0-.39,0-.79.02-1.18Z"/>
    </clipPath>
    <linearGradient id="Gradiente_sem_nome" data-name="Gradiente sem nome" x1="153.2" y1="748.65" x2="128.53" y2="665.5" gradientTransform="translate(-66.24 -419.05) scale(.63)" gradientUnits="userSpaceOnUse">
      <stop offset="0" stop-color="#7c0f51"/>
      <stop offset=".12" stop-color="#7c0f51"/>
      <stop offset=".19" stop-color="#7c0f51"/>
      <stop offset=".2" stop-color="#7c0f51"/>
      <stop offset=".21" stop-color="#7c0f51"/>
      <stop offset=".21" stop-color="#7d0f52"/>
      <stop offset=".22" stop-color="#7e0f52"/>
      <stop offset=".22" stop-color="#7f0f52"/>
      <stop offset=".23" stop-color="#800f53"/>
      <stop offset=".23" stop-color="#810f53"/>
      <stop offset=".23" stop-color="#810f53"/>
      <stop offset=".24" stop-color="#820f54"/>
      <stop offset=".24" stop-color="#830f54"/>
      <stop offset=".25" stop-color="#840f54"/>
      <stop offset=".25" stop-color="#850f55"/>
      <stop offset=".25" stop-color="#860f55"/>
      <stop offset=".26" stop-color="#870f56"/>
      <stop offset=".26" stop-color="#880f56"/>
      <stop offset=".27" stop-color="#890f56"/>
      <stop offset=".27" stop-color="#8a0f57"/>
      <stop offset=".27" stop-color="#8b0f57"/>
      <stop offset=".28" stop-color="#8b0f57"/>
      <stop offset=".28" stop-color="#8c0f58"/>
      <stop offset=".29" stop-color="#8d0f58"/>
      <stop offset=".29" stop-color="#8e0f58"/>
      <stop offset=".29" stop-color="#8f0f59"/>
      <stop offset=".3" stop-color="#900f59"/>
      <stop offset=".3" stop-color="#910f5a"/>
      <stop offset=".3" stop-color="#920f5a"/>
      <stop offset=".31" stop-color="#930f5a"/>
      <stop offset=".31" stop-color="#940f5b"/>
      <stop offset=".32" stop-color="#940f5b"/>
      <stop offset=".32" stop-color="#950f5b"/>
      <stop offset=".32" stop-color="#960f5c"/>
      <stop offset=".33" stop-color="#970f5c"/>
      <stop offset=".33" stop-color="#980e5c"/>
      <stop offset=".34" stop-color="#990e5d"/>
      <stop offset=".34" stop-color="#9a0e5d"/>
      <stop offset=".34" stop-color="#9b0e5e"/>
      <stop offset=".35" stop-color="#9c0e5e"/>
      <stop offset=".35" stop-color="#9d0e5e"/>
      <stop offset=".36" stop-color="#9e0e5f"/>
      <stop offset=".36" stop-color="#9e0e5f"/>
      <stop offset=".36" stop-color="#9f0e5f"/>
      <stop offset=".37" stop-color="#a00e60"/>
      <stop offset=".37" stop-color="#a10e60"/>
      <stop offset=".38" stop-color="#a20e60"/>
      <stop offset=".38" stop-color="#a30e61"/>
      <stop offset=".38" stop-color="#a40e61"/>
      <stop offset=".39" stop-color="#a50e62"/>
      <stop offset=".39" stop-color="#a60e62"/>
      <stop offset=".39" stop-color="#a70e62"/>
      <stop offset=".4" stop-color="#a70e63"/>
      <stop offset=".4" stop-color="#a80e63"/>
      <stop offset=".41" stop-color="#a90e63"/>
      <stop offset=".41" stop-color="#aa0e64"/>
      <stop offset=".41" stop-color="#ab0e64"/>
      <stop offset=".42" stop-color="#ac0e64"/>
      <stop offset=".42" stop-color="#ad0e65"/>
      <stop offset=".43" stop-color="#ae0e65"/>
      <stop offset=".43" stop-color="#af0e66"/>
      <stop offset=".43" stop-color="#b00e66"/>
      <stop offset=".44" stop-color="#b10e66"/>
      <stop offset=".44" stop-color="#b10e67"/>
      <stop offset=".45" stop-color="#b20e67"/>
      <stop offset=".45" stop-color="#b30e67"/>
      <stop offset=".45" stop-color="#b40e68"/>
      <stop offset=".46" stop-color="#b50e68"/>
      <stop offset=".46" stop-color="#b60e69"/>
      <stop offset=".46" stop-color="#b70e69"/>
      <stop offset=".47" stop-color="#b80e69"/>
      <stop offset=".47" stop-color="#b90e6a"/>
      <stop offset=".48" stop-color="#ba0e6a"/>
      <stop offset=".48" stop-color="#ba0e6a"/>
      <stop offset=".48" stop-color="#bb0e6b"/>
      <stop offset=".49" stop-color="#bc0e6b"/>
      <stop offset=".49" stop-color="#bd0e6b"/>
      <stop offset=".5" stop-color="#be0e6c"/>
      <stop offset=".5" stop-color="#bf0e6c"/>
      <stop offset=".5" stop-color="#c00e6d"/>
      <stop offset=".51" stop-color="#c10e6d"/>
      <stop offset=".51" stop-color="#c20e6d"/>
      <stop offset=".52" stop-color="#c30e6e"/>
      <stop offset=".52" stop-color="#c40e6e"/>
      <stop offset=".52" stop-color="#c40e6e"/>
      <stop offset=".53" stop-color="#c50e6f"/>
      <stop offset=".53" stop-color="#c60e6f"/>
      <stop offset=".54" stop-color="#c70e6f"/>
      <stop offset=".54" stop-color="#c80e70"/>
      <stop offset=".54" stop-color="#c90e70"/>
      <stop offset=".55" stop-color="#ca0e71"/>
      <stop offset=".55" stop-color="#cb0e71"/>
      <stop offset=".55" stop-color="#cc0e71"/>
      <stop offset=".56" stop-color="#cd0d72"/>
      <stop offset=".56" stop-color="#cd0d72"/>
      <stop offset=".57" stop-color="#ce0d72"/>
      <stop offset=".57" stop-color="#cf0d73"/>
      <stop offset=".57" stop-color="#d00d73"/>
      <stop offset=".58" stop-color="#d10d73"/>
      <stop offset=".58" stop-color="#d20d74"/>
      <stop offset=".59" stop-color="#d30d74"/>
      <stop offset=".59" stop-color="#d40d75"/>
      <stop offset=".59" stop-color="#d50d75"/>
      <stop offset=".6" stop-color="#d60d75"/>
      <stop offset=".6" stop-color="#d70d76"/>
      <stop offset=".61" stop-color="#d70d76"/>
      <stop offset=".61" stop-color="#d80d76"/>
      <stop offset=".61" stop-color="#d90d77"/>
      <stop offset=".62" stop-color="#da0d77"/>
      <stop offset=".62" stop-color="#db0d77"/>
      <stop offset=".62" stop-color="#dc0d78"/>
      <stop offset=".63" stop-color="#dd0d78"/>
      <stop offset=".63" stop-color="#de0d79"/>
      <stop offset=".64" stop-color="#df0d79"/>
      <stop offset=".64" stop-color="#e00d79"/>
      <stop offset=".64" stop-color="#e00d7a"/>
      <stop offset=".65" stop-color="#e10d7a"/>
      <stop offset=".65" stop-color="#e20d7a"/>
      <stop offset=".66" stop-color="#e30d7b"/>
      <stop offset=".66" stop-color="#e40d7b"/>
      <stop offset=".66" stop-color="#e50d7c"/>
      <stop offset=".67" stop-color="#e50d7c"/>
      <stop offset=".67" stop-color="#e60d7c"/>
      <stop offset=".69" stop-color="#e60d7c"/>
      <stop offset=".75" stop-color="#e60d7c"/>
      <stop offset=".76" stop-color="#e60d7c"/>
      <stop offset="1" stop-color="#e60d7c"/>
    </linearGradient>
    <clipPath id="clippath-2">
      <rect class="cls-2" x="2.14" width="46.34" height="45.5"/>
    </clipPath>
    <clipPath id="clippath-3">
      <path class="cls-2" d="m48.31,20.71c-.15-1.35-.17-1.4-.73-3.79-.35-1.26-.39-1.35-1.27-3.52-.5-1.11-.52-1.15-1.7-3.12-.62-.97-.65-1.01-2.06-2.74q-.74-.85-2.37-2.38-.84-.73-2.66-2.01c-.88-.58-.94-.61-2.58-1.46,7.48,5.35,12.27,15.54,7.67,23.86-4.35,7.89-15.19,8.02-21.57,3.11-8.84-6.81-7.85-16.45-4.41-20.83.81-1.03.98-1.24.89-1.61-.14-.57-1.36-1.08-2.53.07-.64.82-1.69,2.16-2.39,4.03q-.55,1.46-1.01,1.57c-.06-.05-.15-.12-.21-.17,0-.08,0-.18,0-.25l.15-.48c1.91-5.24,5.05-7.19,6.92-8.35.58-.36.63-.46.82-.83-.03-.08-.06-.18-.08-.26-.31-.13-1.02-.43-2.68.4-4.61,2.62-6.53,6.54-6.87,7.31q-.74,1.65-1.09,1.83c-.06-.06-.15-.13-.21-.18.01-.08.04-.19.05-.27l.17-.42C11.42,3.57,16.6,1.44,18.55.63c.66-.27.68-.32.84-.61-.25-.03-.9-.12-2.81.58C10.09,3.42,7.53,7.64,6.57,9.91q-.74,1.76-1.06,2.07c-.07-.03-.17-.07-.25-.09.01-.08.03-.19.04-.27,1.15-3.04,2.7-4.98,3.31-5.67,1.73-1.94,4.14-3.09,6.02-4.79-.1.04-.23.1-.34.14-.81.39-1.94.95-2.72,1.39C2.75,7.59,1.02,18.77,3.59,27.77c1.01,3.53,2.63,6.47,5.18,9.14,1.9,1.99,4.1,3.67,6.49,4.99,2.39,1.31,4.98,2.25,7.65,2.75,2.67.5,5.43.55,8.17.09,1.74-.29,3.37-.78,4.89-1.42s2.92-1.46,4.19-2.42,2.41-2.05,3.4-3.26c.99-1.21,1.83-2.53,2.51-3.95l.6-1.34c.55-1.38.59-1.52,1.2-3.83.31-1.41.32-1.55.54-3.91.07-1.4.07-1.49-.1-3.89Z"/>
    </clipPath>
    <linearGradient id="Gradiente_sem_nome_2" data-name="Gradiente sem nome 2" x1="161.68" y1="658.24" x2="126.68" y2="746.11" gradientTransform="translate(-66.24 -419.05) scale(.63)" gradientUnits="userSpaceOnUse">
      <stop offset="0" stop-color="#ffb00f"/>
      <stop offset=".06" stop-color="#ffb00f"/>
      <stop offset=".09" stop-color="#ffb00f"/>
      <stop offset=".11" stop-color="#ffb00f"/>
      <stop offset=".12" stop-color="#ffb00e"/>
      <stop offset=".14" stop-color="#ffaf0d"/>
      <stop offset=".16" stop-color="#ffaf0d"/>
      <stop offset=".17" stop-color="#ffaf0c"/>
      <stop offset=".19" stop-color="#ffaf0b"/>
      <stop offset=".2" stop-color="#ffaf0a"/>
      <stop offset=".22" stop-color="#ffae09"/>
      <stop offset=".23" stop-color="#ffae09"/>
      <stop offset=".24" stop-color="#ffae08"/>
      <stop offset=".25" stop-color="#ffae07"/>
      <stop offset=".26" stop-color="#ffad07"/>
      <stop offset=".27" stop-color="#ffad06"/>
      <stop offset=".27" stop-color="#ffad05"/>
      <stop offset=".28" stop-color="#ffad05"/>
      <stop offset=".29" stop-color="#ffad04"/>
      <stop offset=".29" stop-color="#ffac04"/>
      <stop offset=".3" stop-color="#ffac03"/>
      <stop offset=".31" stop-color="#ffac03"/>
      <stop offset=".33" stop-color="#ffab04"/>
      <stop offset=".34" stop-color="#ffaa04"/>
      <stop offset=".36" stop-color="#fea904"/>
      <stop offset=".38" stop-color="#fea905"/>
      <stop offset=".39" stop-color="#fea805"/>
      <stop offset=".41" stop-color="#fea705"/>
      <stop offset=".42" stop-color="#fea606"/>
      <stop offset=".44" stop-color="#fea506"/>
      <stop offset=".45" stop-color="#fea507"/>
      <stop offset=".47" stop-color="#fda407"/>
      <stop offset=".48" stop-color="#fda307"/>
      <stop offset=".5" stop-color="#fda208"/>
      <stop offset=".51" stop-color="#fda208"/>
      <stop offset=".52" stop-color="#fda108"/>
      <stop offset=".52" stop-color="#fda009"/>
      <stop offset=".53" stop-color="#fca009"/>
      <stop offset=".54" stop-color="#fc9f09"/>
      <stop offset=".55" stop-color="#fc9e0a"/>
      <stop offset=".55" stop-color="#fc9e0a"/>
      <stop offset=".56" stop-color="#fc9d0a"/>
      <stop offset=".57" stop-color="#fc9c0b"/>
      <stop offset=".58" stop-color="#fc9c0b"/>
      <stop offset=".59" stop-color="#fc9b0b"/>
      <stop offset=".59" stop-color="#fb9a0c"/>
      <stop offset=".6" stop-color="#fb9a0c"/>
      <stop offset=".61" stop-color="#fb990c"/>
      <stop offset=".62" stop-color="#fb980d"/>
      <stop offset=".62" stop-color="#fb980d"/>
      <stop offset=".63" stop-color="#fb970d"/>
      <stop offset=".64" stop-color="#fb970d"/>
      <stop offset=".65" stop-color="#fb960e"/>
      <stop offset=".66" stop-color="#fa950e"/>
      <stop offset=".66" stop-color="#fa950e"/>
      <stop offset=".67" stop-color="#fa940f"/>
      <stop offset=".68" stop-color="#fa930f"/>
      <stop offset=".69" stop-color="#fa930f"/>
      <stop offset=".7" stop-color="#fa9210"/>
      <stop offset=".7" stop-color="#fa9110"/>
      <stop offset=".71" stop-color="#f99110"/>
      <stop offset=".71" stop-color="#f99010"/>
      <stop offset=".72" stop-color="#f99011"/>
      <stop offset=".73" stop-color="#f98f11"/>
      <stop offset=".73" stop-color="#f98f11"/>
      <stop offset=".74" stop-color="#f98e12"/>
      <stop offset=".75" stop-color="#f98d12"/>
      <stop offset=".76" stop-color="#f98d12"/>
      <stop offset=".77" stop-color="#f98c13"/>
      <stop offset=".77" stop-color="#f88b13"/>
      <stop offset=".78" stop-color="#f88b13"/>
      <stop offset=".79" stop-color="#f88a13"/>
      <stop offset=".8" stop-color="#f88a14"/>
      <stop offset=".8" stop-color="#f88914"/>
      <stop offset=".81" stop-color="#f88814"/>
      <stop offset=".82" stop-color="#f88815"/>
      <stop offset=".83" stop-color="#f78715"/>
      <stop offset=".84" stop-color="#f78615"/>
      <stop offset=".84" stop-color="#f78616"/>
      <stop offset=".85" stop-color="#f78516"/>
      <stop offset=".86" stop-color="#f78416"/>
      <stop offset=".87" stop-color="#f78317"/>
      <stop offset=".88" stop-color="#f78317"/>
      <stop offset=".88" stop-color="#f68218"/>
      <stop offset=".89" stop-color="#f68118"/>
      <stop offset=".9" stop-color="#f68018"/>
      <stop offset=".91" stop-color="#f68019"/>
      <stop offset=".91" stop-color="#f67f19"/>
      <stop offset=".92" stop-color="#f67e19"/>
      <stop offset=".93" stop-color="#f67d1a"/>
      <stop offset=".94" stop-color="#f57c1a"/>
      <stop offset=".95" stop-color="#f57c1b"/>
      <stop offset=".95" stop-color="#f57b1b"/>
      <stop offset=".96" stop-color="#f57a1b"/>
      <stop offset=".97" stop-color="#f5791c"/>
      <stop offset=".98" stop-color="#f5791c"/>
      <stop offset=".98" stop-color="#f5781d"/>
      <stop offset=".99" stop-color="#f4771d"/>
      <stop offset="1" stop-color="#f4761d"/>
    </linearGradient>
  </defs>
  <g id="Camada_1-2" data-name="Camada 1">
    <g class="cls-9">
      <g class="cls-8">
        <path class="cls-3" d="m.02,47.43V3.93h45.29v43.51H.02Z"/>
      </g>
    </g>
    <g class="cls-5">
      <g class="cls-10">
        <path class="cls-1" d="m1.02,45.2V0h47.46v45.2H1.02Z"/>
      </g>
    </g>
    <text class="cls-11" transform="translate(59.37 37.49)"><tspan class="cls-6" x="0" y="0">C</tspan><tspan class="cls-7" x="27.39" y="0">A</tspan><tspan class="cls-6" x="52.59" y="0">USAS</tspan><tspan class="cls-4" x="156.67" y="0">.NET</tspan></text>
  </g>
</svg>